<svg width="54" height="53" viewBox="0 0 54 53" fill="none" xmlns="http://www.w3.org/2000/svg">
<path d="M27.3184 0C12.7241 0 0.87915 11.8443 0.87915 26.4392C0.87915 41.0342 12.7241 52.8785 27.3184 52.8785C41.9127 52.8785 53.7583 41.0342 53.7583 26.4392C53.7583 11.8443 41.9133 0 27.3184 0Z" fill="#0F6AAB"/>
<path d="M27.4113 14.1872C26.5529 14.1259 25.6577 14.3221 24.8606 14.7881C24.3486 15.0812 23.8995 15.4726 23.539 15.9397C23.1785 16.4068 22.9138 16.9405 22.76 17.5101C22.6062 18.0798 22.5663 18.6741 22.6427 19.2592C22.7191 19.8443 22.9102 20.4085 23.2051 20.9195L32.2062 36.4935C33.4447 38.6518 36.1916 39.3631 38.3499 38.1368C40.496 36.9105 41.2072 34.1513 39.9809 32.0053L31.0044 16.4313C30.6336 15.7928 30.1125 15.2546 29.4863 14.8635C28.8601 14.4724 28.1478 14.2402 27.4113 14.1872ZM20.7525 20.6743L14.2286 32.0053C13.8311 32.6867 13.6197 33.4606 13.6155 34.2494C13.6155 34.8404 13.7319 35.4257 13.9581 35.9717C14.1842 36.5177 14.5157 37.0138 14.9336 37.4318C15.3516 37.8497 15.8477 38.1812 16.3937 38.4074C16.9398 38.6335 17.525 38.7499 18.116 38.7499C18.9049 38.7475 19.6793 38.5378 20.3615 38.1418C21.0438 37.7458 21.61 37.1774 22.0034 36.4935V36.5058L25.8785 29.7857C24.223 26.9652 22.5307 24.157 21.0101 21.2506C20.912 21.0667 20.8261 20.8705 20.7648 20.6743H20.7525ZM20.7525 20.6743L32.5005 18.516L20.7525 20.6743Z" fill="#F8F8F8"/>
</svg>
