<svg width="55" height="55" viewBox="0 0 55 55" fill="none" xmlns="http://www.w3.org/2000/svg">
<path d="M27.44 0C12.2933 0 0 12.2926 0 27.44C0 42.5874 12.2933 54.88 27.44 54.88C42.5867 54.88 54.8806 42.5874 54.8806 27.44C54.8806 12.2926 42.5874 0 27.44 0Z" fill="#0F6AAB"/>
<path d="M39.4542 22.9075C40.1293 22.9075 40.7767 23.1757 41.2541 23.6531C41.7314 24.1304 41.9996 24.7779 41.9996 25.4529V30.5438C41.9996 31.2189 41.7314 31.8663 41.2541 32.3437C40.7767 32.8211 40.1293 33.0892 39.4542 33.0892H38.1026C37.7923 35.5498 36.5947 37.8125 34.7346 39.4528C32.8745 41.0931 30.4798 41.9982 27.9998 41.9983V39.4528C30.025 39.4528 31.9673 38.6483 33.3994 37.2162C34.8315 35.7841 35.636 33.8418 35.636 31.8165V24.1802C35.636 22.155 34.8315 20.2126 33.3994 18.7806C31.9673 17.3485 30.025 16.5439 27.9998 16.5439C25.9745 16.5439 24.0322 17.3485 22.6001 18.7806C21.168 20.2126 20.3635 22.155 20.3635 24.1802V33.0892H16.5453C15.8702 33.0892 15.2228 32.8211 14.7454 32.3437C14.2681 31.8663 13.9999 31.2189 13.9999 30.5438V25.4529C13.9999 24.7779 14.2681 24.1304 14.7454 23.6531C15.2228 23.1757 15.8702 22.9075 16.5453 22.9075H17.8969C18.2075 20.4472 19.4052 18.1848 21.2653 16.5448C23.1253 14.9048 25.5199 13.9999 27.9998 13.9999C30.4796 13.9999 32.8742 14.9048 34.7342 16.5448C36.5943 18.1848 37.792 20.4472 38.1026 22.9075H39.4542ZM22.6034 32.8156L23.9525 30.6571C25.1655 31.4169 26.5684 31.8188 27.9998 31.8165C29.4311 31.8188 30.834 31.4169 32.047 30.6571L33.3961 32.8156C31.7788 33.8289 29.9082 34.3649 27.9998 34.362C26.0913 34.3649 24.2207 33.8289 22.6034 32.8156Z" fill="#F8F8F8"/>
</svg>
