<svg width="1186" height="743" viewBox="0 0 1186 743" fill="none" xmlns="http://www.w3.org/2000/svg">
<path d="M496.165 265.008L77.1016 511.348V742.714L497.001 512.183L496.165 265.008Z" fill="#031D42"/>
<path d="M78.007 0L497.001 264.1V512.111L77.1016 265.005L78.007 0Z" fill="#093773"/>
<path d="M0.626819 306.934L283.113 473.041V629.049L0 473.598L0.626819 306.934Z" fill="#FE6400"/>
<path d="M282.486 128.844L0 306.93V474.151L283.113 307.557L282.486 128.844Z" fill="#FF8101"/>
<path d="M568.008 363V292.98H592.812C617.682 292.98 630.117 304.357 630.117 327.111C630.117 338.016 626.715 346.724 619.912 353.234C613.141 359.745 604.108 363 592.812 363H568.008ZM583.779 305.822V350.207H591.592C598.428 350.207 603.783 348.156 607.656 344.055C611.562 339.953 613.516 334.37 613.516 327.307C613.516 320.633 611.579 315.393 607.705 311.584C603.864 307.743 598.46 305.822 591.494 305.822H583.779ZM685.146 342.395H652.529C653.05 349.654 657.624 353.283 666.25 353.283C671.751 353.283 676.585 351.981 680.752 349.377V360.51C676.13 362.984 670.124 364.221 662.734 364.221C654.661 364.221 648.395 361.991 643.936 357.531C639.476 353.039 637.246 346.789 637.246 338.781C637.246 330.48 639.655 323.905 644.473 319.055C649.29 314.204 655.215 311.779 662.246 311.779C669.538 311.779 675.169 313.944 679.141 318.273C683.145 322.603 685.146 328.479 685.146 335.9V342.395ZM670.84 332.922C670.84 325.76 667.943 322.18 662.148 322.18C659.674 322.18 657.526 323.205 655.703 325.256C653.913 327.307 652.822 329.862 652.432 332.922H670.84ZM741.934 313L723.33 363H705.752L688.027 313H704.531L713.223 343.811C714.199 347.294 714.769 350.256 714.932 352.697H715.127C715.355 350.386 715.957 347.521 716.934 344.104L725.82 313H741.934ZM793.447 342.395H760.83C761.351 349.654 765.924 353.283 774.551 353.283C780.052 353.283 784.886 351.981 789.053 349.377V360.51C784.43 362.984 778.424 364.221 771.035 364.221C762.962 364.221 756.696 361.991 752.236 357.531C747.777 353.039 745.547 346.789 745.547 338.781C745.547 330.48 747.956 323.905 752.773 319.055C757.591 314.204 763.516 311.779 770.547 311.779C777.839 311.779 783.47 313.944 787.441 318.273C791.445 322.603 793.447 328.479 793.447 335.9V342.395ZM779.141 332.922C779.141 325.76 776.243 322.18 770.449 322.18C767.975 322.18 765.827 323.205 764.004 325.256C762.214 327.307 761.123 329.862 760.732 332.922H779.141ZM818.057 363H802.627V288.977H818.057V363ZM854.873 364.221C846.54 364.221 839.98 361.893 835.195 357.238C830.443 352.551 828.066 346.203 828.066 338.195C828.066 329.927 830.54 323.465 835.488 318.811C840.436 314.123 847.126 311.779 855.557 311.779C863.857 311.779 870.368 314.123 875.088 318.811C879.808 323.465 882.168 329.634 882.168 337.316C882.168 345.617 879.727 352.176 874.844 356.994C869.993 361.812 863.337 364.221 854.873 364.221ZM855.264 323.596C851.618 323.596 848.786 324.849 846.768 327.355C844.749 329.862 843.74 333.41 843.74 338C843.74 347.603 847.614 352.404 855.361 352.404C862.751 352.404 866.445 347.473 866.445 337.609C866.445 328.267 862.718 323.596 855.264 323.596ZM907.803 357.189H907.607V385.998H892.178V313H907.607V320.52H907.803C911.611 314.693 916.966 311.779 923.867 311.779C930.345 311.779 935.342 314.009 938.857 318.469C942.406 322.896 944.18 328.934 944.18 336.584C944.18 344.917 942.113 351.607 937.979 356.652C933.877 361.698 928.408 364.221 921.572 364.221C915.55 364.221 910.96 361.877 907.803 357.189ZM907.363 336.682V340.686C907.363 344.136 908.275 346.952 910.098 349.133C911.921 351.314 914.313 352.404 917.275 352.404C920.791 352.404 923.509 351.053 925.43 348.352C927.383 345.617 928.359 341.76 928.359 336.779C928.359 327.99 924.941 323.596 918.105 323.596C914.948 323.596 912.36 324.8 910.342 327.209C908.356 329.585 907.363 332.743 907.363 336.682ZM999.111 342.395H966.494C967.015 349.654 971.589 353.283 980.215 353.283C985.716 353.283 990.55 351.981 994.717 349.377V360.51C990.094 362.984 984.089 364.221 976.699 364.221C968.626 364.221 962.36 361.991 957.9 357.531C953.441 353.039 951.211 346.789 951.211 338.781C951.211 330.48 953.62 323.905 958.438 319.055C963.255 314.204 969.18 311.779 976.211 311.779C983.503 311.779 989.134 313.944 993.105 318.273C997.109 322.603 999.111 328.479 999.111 335.9V342.395ZM984.805 332.922C984.805 325.76 981.908 322.18 976.113 322.18C973.639 322.18 971.491 323.205 969.668 325.256C967.878 327.307 966.787 329.862 966.396 332.922H984.805ZM1040.91 326.916C1039.05 325.907 1036.89 325.402 1034.41 325.402C1031.06 325.402 1028.44 326.639 1026.55 329.113C1024.66 331.555 1023.72 334.891 1023.72 339.123V363H1008.29V313H1023.72V322.277H1023.92C1026.36 315.507 1030.75 312.121 1037.1 312.121C1038.73 312.121 1040 312.316 1040.91 312.707V326.916ZM1044.86 361.682V349.182C1047.4 350.712 1049.93 351.851 1052.43 352.6C1054.97 353.348 1057.36 353.723 1059.61 353.723C1062.34 353.723 1064.49 353.348 1066.05 352.6C1067.65 351.851 1068.45 350.712 1068.45 349.182C1068.45 348.205 1068.09 347.391 1067.37 346.74C1066.66 346.089 1065.73 345.52 1064.59 345.031C1063.48 344.543 1062.26 344.104 1060.93 343.713C1059.59 343.322 1058.31 342.883 1057.07 342.395C1055.08 341.646 1053.33 340.848 1051.8 340.002C1050.3 339.123 1049.03 338.114 1047.99 336.975C1046.98 335.835 1046.2 334.517 1045.64 333.02C1045.12 331.522 1044.86 329.748 1044.86 327.697C1044.86 324.898 1045.47 322.489 1046.67 320.471C1047.91 318.452 1049.53 316.809 1051.55 315.539C1053.6 314.237 1055.93 313.293 1058.54 312.707C1061.17 312.089 1063.91 311.779 1066.74 311.779C1068.95 311.779 1071.2 311.958 1073.48 312.316C1075.76 312.642 1078 313.13 1080.21 313.781V325.695C1078.26 324.556 1076.16 323.71 1073.92 323.156C1071.7 322.57 1069.52 322.277 1067.37 322.277C1066.36 322.277 1065.4 322.375 1064.49 322.57C1063.61 322.733 1062.83 322.993 1062.15 323.352C1061.46 323.677 1060.93 324.117 1060.54 324.67C1060.15 325.191 1059.95 325.793 1059.95 326.477C1059.95 327.388 1060.24 328.169 1060.83 328.82C1061.42 329.471 1062.18 330.041 1063.12 330.529C1064.07 330.985 1065.11 331.408 1066.25 331.799C1067.42 332.157 1068.58 332.531 1069.72 332.922C1071.77 333.638 1073.62 334.419 1075.28 335.266C1076.94 336.112 1078.36 337.105 1079.53 338.244C1080.74 339.383 1081.65 340.718 1082.27 342.248C1082.92 343.778 1083.24 345.601 1083.24 347.717C1083.24 350.679 1082.59 353.218 1081.29 355.334C1080.02 357.417 1078.31 359.126 1076.16 360.461C1074.05 361.763 1071.59 362.707 1068.79 363.293C1066.02 363.911 1063.14 364.221 1060.15 364.221C1054.65 364.221 1049.55 363.374 1044.86 361.682ZM1110.1 291.32L1100.67 313H1091.2L1096.77 291.32H1110.1Z" fill="#070932"/>
<path d="M568.008 474V403.98H592.812C617.682 403.98 630.117 415.357 630.117 438.111C630.117 449.016 626.715 457.724 619.912 464.234C613.141 470.745 604.108 474 592.812 474H568.008ZM583.779 416.822V461.207H591.592C598.428 461.207 603.783 459.156 607.656 455.055C611.562 450.953 613.516 445.37 613.516 438.307C613.516 431.633 611.579 426.393 607.705 422.584C603.864 418.743 598.46 416.822 591.494 416.822H583.779ZM681.826 474H667.227V466.822H667.031C663.678 472.421 658.714 475.221 652.139 475.221C647.288 475.221 643.464 473.854 640.664 471.119C637.897 468.352 636.514 464.674 636.514 460.084C636.514 450.383 642.259 444.785 653.75 443.287L667.324 441.48C667.324 436.012 664.362 433.277 658.438 433.277C652.48 433.277 646.816 435.051 641.445 438.6V426.979C643.594 425.872 646.523 424.895 650.234 424.049C653.978 423.202 657.38 422.779 660.439 422.779C674.697 422.779 681.826 429.892 681.826 444.117V474ZM667.324 453.688V450.318L658.242 451.49C653.229 452.141 650.723 454.404 650.723 458.277C650.723 460.035 651.325 461.484 652.529 462.623C653.766 463.73 655.426 464.283 657.51 464.283C660.407 464.283 662.767 463.29 664.59 461.305C666.413 459.286 667.324 456.747 667.324 453.688ZM741.641 424L721.328 478.004C716.445 490.992 709.089 497.486 699.258 497.486C695.514 497.486 692.438 497.063 690.029 496.217V483.912C692.08 485.117 694.31 485.719 696.719 485.719C700.69 485.719 703.457 483.847 705.02 480.104L707.656 473.902L687.344 424H704.434L713.76 454.42C714.346 456.308 714.801 458.538 715.127 461.109H715.322C715.615 459.221 716.152 457.024 716.934 454.518L726.357 424H741.641Z" fill="#FE6B00"/>
</svg>
