<svg width="55" height="55" viewBox="0 0 55 55" fill="none" xmlns="http://www.w3.org/2000/svg">
<path d="M27.4397 0C12.2931 0 0 12.2925 0 27.4397C0 42.5869 12.2931 54.8794 27.4397 54.8794C42.5862 54.8794 54.88 42.5869 54.88 27.4397C54.88 12.2925 42.5869 0 27.4397 0Z" fill="#0F6AAB"/>
<path d="M15.3881 38.181V35.0367H17.9798L21.1789 24.6998C21.3948 24.0185 21.7928 23.4745 22.3727 23.0679C22.9536 22.6622 23.5951 22.4594 24.297 22.4594H29.1564C29.8583 22.4594 30.4997 22.6622 31.0807 23.0679C31.6606 23.4745 32.0585 24.0185 32.2745 24.6998L35.4736 35.0367H38.0653V38.181H15.3881ZM21.3813 35.0367H32.072L29.1564 25.6037H24.297L21.3813 35.0367ZM25.1069 19.3151V11.4543H28.3465V19.3151H25.1069ZM34.7447 23.2062L32.4365 20.9659L38.1868 15.424L40.4545 17.625L34.7447 23.2062ZM36.4455 30.3202V27.1759H44.5445V30.3202H36.4455ZM18.7087 23.2062L12.9989 17.625L15.2666 15.424L21.0169 20.9659L18.7087 23.2062ZM8.90887 30.3202V27.1759H17.0079V30.3202H8.90887Z" fill="#F8F8F8"/>
</svg>
