<svg width="314" height="94" viewBox="0 0 314 94" fill="none" xmlns="http://www.w3.org/2000/svg">
<circle cx="47" cy="47" r="47" fill="#15486D"/>
<path d="M51.8125 54.0703C51.8125 53.4609 51.7188 52.9141 51.5312 52.4297C51.3594 51.9297 51.0312 51.4766 50.5469 51.0703C50.0625 50.6484 49.3828 50.2344 48.5078 49.8281C47.6328 49.4219 46.5 49 45.1094 48.5625C43.5625 48.0625 42.0938 47.5 40.7031 46.875C39.3281 46.25 38.1094 45.5234 37.0469 44.6953C36 43.8516 35.1719 42.875 34.5625 41.7656C33.9688 40.6562 33.6719 39.3672 33.6719 37.8984C33.6719 36.4766 33.9844 35.1875 34.6094 34.0312C35.2344 32.8594 36.1094 31.8594 37.2344 31.0312C38.3594 30.1875 39.6875 29.5391 41.2188 29.0859C42.7656 28.6328 44.4609 28.4062 46.3047 28.4062C48.8203 28.4062 51.0156 28.8594 52.8906 29.7656C54.7656 30.6719 56.2188 31.9141 57.25 33.4922C58.2969 35.0703 58.8203 36.875 58.8203 38.9062H51.8359C51.8359 37.9062 51.625 37.0312 51.2031 36.2812C50.7969 35.5156 50.1719 34.9141 49.3281 34.4766C48.5 34.0391 47.4531 33.8203 46.1875 33.8203C44.9688 33.8203 43.9531 34.0078 43.1406 34.3828C42.3281 34.7422 41.7188 35.2344 41.3125 35.8594C40.9062 36.4688 40.7031 37.1562 40.7031 37.9219C40.7031 38.5 40.8438 39.0234 41.125 39.4922C41.4219 39.9609 41.8594 40.3984 42.4375 40.8047C43.0156 41.2109 43.7266 41.5938 44.5703 41.9531C45.4141 42.3125 46.3906 42.6641 47.5 43.0078C49.3594 43.5703 50.9922 44.2031 52.3984 44.9062C53.8203 45.6094 55.0078 46.3984 55.9609 47.2734C56.9141 48.1484 57.6328 49.1406 58.1172 50.25C58.6016 51.3594 58.8438 52.6172 58.8438 54.0234C58.8438 55.5078 58.5547 56.8359 57.9766 58.0078C57.3984 59.1797 56.5625 60.1719 55.4688 60.9844C54.375 61.7969 53.0703 62.4141 51.5547 62.8359C50.0391 63.2578 48.3438 63.4688 46.4688 63.4688C44.7812 63.4688 43.1172 63.25 41.4766 62.8125C39.8359 62.3594 38.3438 61.6797 37 60.7734C35.6719 59.8672 34.6094 58.7109 33.8125 57.3047C33.0156 55.8984 32.6172 54.2344 32.6172 52.3125H39.6719C39.6719 53.375 39.8359 54.2734 40.1641 55.0078C40.4922 55.7422 40.9531 56.3359 41.5469 56.7891C42.1562 57.2422 42.875 57.5703 43.7031 57.7734C44.5469 57.9766 45.4688 58.0781 46.4688 58.0781C47.6875 58.0781 48.6875 57.9062 49.4688 57.5625C50.2656 57.2188 50.8516 56.7422 51.2266 56.1328C51.6172 55.5234 51.8125 54.8359 51.8125 54.0703Z" fill="white"/>
<path d="M129.812 54.0703C129.812 53.4609 129.719 52.9141 129.531 52.4297C129.359 51.9297 129.031 51.4766 128.547 51.0703C128.062 50.6484 127.383 50.2344 126.508 49.8281C125.633 49.4219 124.5 49 123.109 48.5625C121.562 48.0625 120.094 47.5 118.703 46.875C117.328 46.25 116.109 45.5234 115.047 44.6953C114 43.8516 113.172 42.875 112.562 41.7656C111.969 40.6562 111.672 39.3672 111.672 37.8984C111.672 36.4766 111.984 35.1875 112.609 34.0312C113.234 32.8594 114.109 31.8594 115.234 31.0312C116.359 30.1875 117.688 29.5391 119.219 29.0859C120.766 28.6328 122.461 28.4062 124.305 28.4062C126.82 28.4062 129.016 28.8594 130.891 29.7656C132.766 30.6719 134.219 31.9141 135.25 33.4922C136.297 35.0703 136.82 36.875 136.82 38.9062H129.836C129.836 37.9062 129.625 37.0312 129.203 36.2812C128.797 35.5156 128.172 34.9141 127.328 34.4766C126.5 34.0391 125.453 33.8203 124.188 33.8203C122.969 33.8203 121.953 34.0078 121.141 34.3828C120.328 34.7422 119.719 35.2344 119.312 35.8594C118.906 36.4688 118.703 37.1562 118.703 37.9219C118.703 38.5 118.844 39.0234 119.125 39.4922C119.422 39.9609 119.859 40.3984 120.438 40.8047C121.016 41.2109 121.727 41.5938 122.57 41.9531C123.414 42.3125 124.391 42.6641 125.5 43.0078C127.359 43.5703 128.992 44.2031 130.398 44.9062C131.82 45.6094 133.008 46.3984 133.961 47.2734C134.914 48.1484 135.633 49.1406 136.117 50.25C136.602 51.3594 136.844 52.6172 136.844 54.0234C136.844 55.5078 136.555 56.8359 135.977 58.0078C135.398 59.1797 134.562 60.1719 133.469 60.9844C132.375 61.7969 131.07 62.4141 129.555 62.8359C128.039 63.2578 126.344 63.4688 124.469 63.4688C122.781 63.4688 121.117 63.25 119.477 62.8125C117.836 62.3594 116.344 61.6797 115 60.7734C113.672 59.8672 112.609 58.7109 111.812 57.3047C111.016 55.8984 110.617 54.2344 110.617 52.3125H117.672C117.672 53.375 117.836 54.2734 118.164 55.0078C118.492 55.7422 118.953 56.3359 119.547 56.7891C120.156 57.2422 120.875 57.5703 121.703 57.7734C122.547 57.9766 123.469 58.0781 124.469 58.0781C125.688 58.0781 126.688 57.9062 127.469 57.5625C128.266 57.2188 128.852 56.7422 129.227 56.1328C129.617 55.5234 129.812 54.8359 129.812 54.0703ZM147.789 27V63H141.039V27H147.789ZM146.828 49.4297H144.977C144.992 47.6641 145.227 46.0391 145.68 44.5547C146.133 43.0547 146.781 41.7578 147.625 40.6641C148.469 39.5547 149.477 38.6953 150.648 38.0859C151.836 37.4766 153.148 37.1719 154.586 37.1719C155.836 37.1719 156.969 37.3516 157.984 37.7109C159.016 38.0547 159.898 38.6172 160.633 39.3984C161.383 40.1641 161.961 41.1719 162.367 42.4219C162.773 43.6719 162.977 45.1875 162.977 46.9688V63H156.18V46.9219C156.18 45.7969 156.016 44.9141 155.688 44.2734C155.375 43.6172 154.914 43.1562 154.305 42.8906C153.711 42.6094 152.977 42.4688 152.102 42.4688C151.133 42.4688 150.305 42.6484 149.617 43.0078C148.945 43.3672 148.406 43.8672 148 44.5078C147.594 45.1328 147.297 45.8672 147.109 46.7109C146.922 47.5547 146.828 48.4609 146.828 49.4297ZM167.031 50.5781V50.0859C167.031 48.2266 167.297 46.5156 167.828 44.9531C168.359 43.375 169.133 42.0078 170.148 40.8516C171.164 39.6953 172.414 38.7969 173.898 38.1562C175.383 37.5 177.086 37.1719 179.008 37.1719C180.93 37.1719 182.641 37.5 184.141 38.1562C185.641 38.7969 186.898 39.6953 187.914 40.8516C188.945 42.0078 189.727 43.375 190.258 44.9531C190.789 46.5156 191.055 48.2266 191.055 50.0859V50.5781C191.055 52.4219 190.789 54.1328 190.258 55.7109C189.727 57.2734 188.945 58.6406 187.914 59.8125C186.898 60.9688 185.648 61.8672 184.164 62.5078C182.68 63.1484 180.977 63.4688 179.055 63.4688C177.133 63.4688 175.422 63.1484 173.922 62.5078C172.438 61.8672 171.18 60.9688 170.148 59.8125C169.133 58.6406 168.359 57.2734 167.828 55.7109C167.297 54.1328 167.031 52.4219 167.031 50.5781ZM173.781 50.0859V50.5781C173.781 51.6406 173.875 52.6328 174.062 53.5547C174.25 54.4766 174.547 55.2891 174.953 55.9922C175.375 56.6797 175.922 57.2188 176.594 57.6094C177.266 58 178.086 58.1953 179.055 58.1953C179.992 58.1953 180.797 58 181.469 57.6094C182.141 57.2188 182.68 56.6797 183.086 55.9922C183.492 55.2891 183.789 54.4766 183.977 53.5547C184.18 52.6328 184.281 51.6406 184.281 50.5781V50.0859C184.281 49.0547 184.18 48.0859 183.977 47.1797C183.789 46.2578 183.484 45.4453 183.062 44.7422C182.656 44.0234 182.117 43.4609 181.445 43.0547C180.773 42.6484 179.961 42.4453 179.008 42.4453C178.055 42.4453 177.242 42.6484 176.57 43.0547C175.914 43.4609 175.375 44.0234 174.953 44.7422C174.547 45.4453 174.25 46.2578 174.062 47.1797C173.875 48.0859 173.781 49.0547 173.781 50.0859ZM201.953 42.5156V72.75H195.203V37.6406H201.461L201.953 42.5156ZM218.008 50.0391V50.5312C218.008 52.375 217.789 54.0859 217.352 55.6641C216.93 57.2422 216.305 58.6172 215.477 59.7891C214.648 60.9453 213.617 61.8516 212.383 62.5078C211.164 63.1484 209.758 63.4688 208.164 63.4688C206.617 63.4688 205.273 63.1562 204.133 62.5312C202.992 61.9062 202.031 61.0312 201.25 59.9062C200.484 58.7656 199.867 57.4453 199.398 55.9453C198.93 54.4453 198.57 52.8359 198.32 51.1172V49.8281C198.57 47.9844 198.93 46.2969 199.398 44.7656C199.867 43.2188 200.484 41.8828 201.25 40.7578C202.031 39.6172 202.984 38.7344 204.109 38.1094C205.25 37.4844 206.586 37.1719 208.117 37.1719C209.727 37.1719 211.141 37.4766 212.359 38.0859C213.594 38.6953 214.625 39.5703 215.453 40.7109C216.297 41.8516 216.93 43.2109 217.352 44.7891C217.789 46.3672 218.008 48.1172 218.008 50.0391ZM211.234 50.5312V50.0391C211.234 48.9609 211.141 47.9688 210.953 47.0625C210.781 46.1406 210.5 45.3359 210.109 44.6484C209.734 43.9609 209.234 43.4297 208.609 43.0547C208 42.6641 207.258 42.4688 206.383 42.4688C205.461 42.4688 204.672 42.6172 204.016 42.9141C203.375 43.2109 202.852 43.6406 202.445 44.2031C202.039 44.7656 201.734 45.4375 201.531 46.2188C201.328 47 201.203 47.8828 201.156 48.8672V52.125C201.234 53.2812 201.453 54.3203 201.812 55.2422C202.172 56.1484 202.727 56.8672 203.477 57.3984C204.227 57.9297 205.211 58.1953 206.43 58.1953C207.32 58.1953 208.07 58 208.68 57.6094C209.289 57.2031 209.781 56.6484 210.156 55.9453C210.547 55.2422 210.82 54.4297 210.977 53.5078C211.148 52.5859 211.234 51.5938 211.234 50.5312ZM228.953 42.5156V72.75H222.203V37.6406H228.461L228.953 42.5156ZM245.008 50.0391V50.5312C245.008 52.375 244.789 54.0859 244.352 55.6641C243.93 57.2422 243.305 58.6172 242.477 59.7891C241.648 60.9453 240.617 61.8516 239.383 62.5078C238.164 63.1484 236.758 63.4688 235.164 63.4688C233.617 63.4688 232.273 63.1562 231.133 62.5312C229.992 61.9062 229.031 61.0312 228.25 59.9062C227.484 58.7656 226.867 57.4453 226.398 55.9453C225.93 54.4453 225.57 52.8359 225.32 51.1172V49.8281C225.57 47.9844 225.93 46.2969 226.398 44.7656C226.867 43.2188 227.484 41.8828 228.25 40.7578C229.031 39.6172 229.984 38.7344 231.109 38.1094C232.25 37.4844 233.586 37.1719 235.117 37.1719C236.727 37.1719 238.141 37.4766 239.359 38.0859C240.594 38.6953 241.625 39.5703 242.453 40.7109C243.297 41.8516 243.93 43.2109 244.352 44.7891C244.789 46.3672 245.008 48.1172 245.008 50.0391ZM238.234 50.5312V50.0391C238.234 48.9609 238.141 47.9688 237.953 47.0625C237.781 46.1406 237.5 45.3359 237.109 44.6484C236.734 43.9609 236.234 43.4297 235.609 43.0547C235 42.6641 234.258 42.4688 233.383 42.4688C232.461 42.4688 231.672 42.6172 231.016 42.9141C230.375 43.2109 229.852 43.6406 229.445 44.2031C229.039 44.7656 228.734 45.4375 228.531 46.2188C228.328 47 228.203 47.8828 228.156 48.8672V52.125C228.234 53.2812 228.453 54.3203 228.812 55.2422C229.172 56.1484 229.727 56.8672 230.477 57.3984C231.227 57.9297 232.211 58.1953 233.43 58.1953C234.32 58.1953 235.07 58 235.68 57.6094C236.289 57.2031 236.781 56.6484 237.156 55.9453C237.547 55.2422 237.82 54.4297 237.977 53.5078C238.148 52.5859 238.234 51.5938 238.234 50.5312ZM256.328 37.6406V63H249.555V37.6406H256.328ZM249.133 31.0312C249.133 30.0469 249.477 29.2344 250.164 28.5938C250.852 27.9531 251.773 27.6328 252.93 27.6328C254.07 27.6328 254.984 27.9531 255.672 28.5938C256.375 29.2344 256.727 30.0469 256.727 31.0312C256.727 32.0156 256.375 32.8281 255.672 33.4688C254.984 34.1094 254.07 34.4297 252.93 34.4297C251.773 34.4297 250.852 34.1094 250.164 33.4688C249.477 32.8281 249.133 32.0156 249.133 31.0312ZM268.516 43.0547V63H261.766V37.6406H268.094L268.516 43.0547ZM267.531 49.4297H265.703C265.703 47.5547 265.945 45.8672 266.43 44.3672C266.914 42.8516 267.594 41.5625 268.469 40.5C269.344 39.4219 270.383 38.6016 271.586 38.0391C272.805 37.4609 274.164 37.1719 275.664 37.1719C276.852 37.1719 277.938 37.3438 278.922 37.6875C279.906 38.0312 280.75 38.5781 281.453 39.3281C282.172 40.0781 282.719 41.0703 283.094 42.3047C283.484 43.5391 283.68 45.0469 283.68 46.8281V63H276.883V46.8047C276.883 45.6797 276.727 44.8047 276.414 44.1797C276.102 43.5547 275.641 43.1172 275.031 42.8672C274.438 42.6016 273.703 42.4688 272.828 42.4688C271.922 42.4688 271.133 42.6484 270.461 43.0078C269.805 43.3672 269.258 43.8672 268.82 44.5078C268.398 45.1328 268.078 45.8672 267.859 46.7109C267.641 47.5547 267.531 48.4609 267.531 49.4297ZM304.867 37.6406H310.984V62.1562C310.984 64.4688 310.469 66.4297 309.438 68.0391C308.422 69.6641 307 70.8906 305.172 71.7188C303.344 72.5625 301.219 72.9844 298.797 72.9844C297.734 72.9844 296.609 72.8438 295.422 72.5625C294.25 72.2812 293.125 71.8438 292.047 71.25C290.984 70.6562 290.094 69.9062 289.375 69L292.352 65.0156C293.133 65.9219 294.039 66.625 295.07 67.125C296.102 67.6406 297.242 67.8984 298.492 67.8984C299.711 67.8984 300.742 67.6719 301.586 67.2188C302.43 66.7812 303.078 66.1328 303.531 65.2734C303.984 64.4297 304.211 63.4062 304.211 62.2031V43.5L304.867 37.6406ZM287.805 50.625V50.1328C287.805 48.1953 288.039 46.4375 288.508 44.8594C288.992 43.2656 289.672 41.8984 290.547 40.7578C291.438 39.6172 292.516 38.7344 293.781 38.1094C295.047 37.4844 296.477 37.1719 298.07 37.1719C299.758 37.1719 301.172 37.4844 302.312 38.1094C303.453 38.7344 304.391 39.625 305.125 40.7812C305.859 41.9219 306.43 43.2734 306.836 44.8359C307.258 46.3828 307.586 48.0781 307.82 49.9219V51C307.586 52.7656 307.234 54.4062 306.766 55.9219C306.297 57.4375 305.68 58.7656 304.914 59.9062C304.148 61.0312 303.195 61.9062 302.055 62.5312C300.93 63.1562 299.586 63.4688 298.023 63.4688C296.461 63.4688 295.047 63.1484 293.781 62.5078C292.531 61.8672 291.461 60.9688 290.57 59.8125C289.68 58.6562 288.992 57.2969 288.508 55.7344C288.039 54.1719 287.805 52.4688 287.805 50.625ZM294.555 50.1328V50.625C294.555 51.6719 294.656 52.6484 294.859 53.5547C295.062 54.4609 295.375 55.2656 295.797 55.9688C296.234 56.6562 296.773 57.1953 297.414 57.5859C298.07 57.9609 298.844 58.1484 299.734 58.1484C300.969 58.1484 301.977 57.8906 302.758 57.375C303.539 56.8438 304.125 56.1172 304.516 55.1953C304.906 54.2734 305.133 53.2109 305.195 52.0078V48.9375C305.164 47.9531 305.031 47.0703 304.797 46.2891C304.562 45.4922 304.234 44.8125 303.812 44.25C303.391 43.6875 302.844 43.25 302.172 42.9375C301.5 42.625 300.703 42.4688 299.781 42.4688C298.891 42.4688 298.117 42.6719 297.461 43.0781C296.82 43.4688 296.281 44.0078 295.844 44.6953C295.422 45.3828 295.102 46.1953 294.883 47.1328C294.664 48.0547 294.555 49.0547 294.555 50.1328Z" fill="#3989C3"/>
</svg>
