<svg width="55" height="55" viewBox="0 0 55 55" fill="none" xmlns="http://www.w3.org/2000/svg">
<path d="M27.4392 0C12.2929 0 0 12.2923 0 27.4392C0 42.5862 12.2929 54.8785 27.4392 54.8785C42.5855 54.8785 54.8791 42.5862 54.8791 27.4392C54.8791 12.2923 42.5862 0 27.4392 0Z" fill="#0F6AAB"/>
<path d="M13.9995 38.1804V16.5448H23.2497C24.6511 16.5445 26.022 16.9358 27.1942 17.6706C28.3664 18.4054 29.2888 19.4517 29.8482 20.6812C29.4459 21.081 29.0978 21.5277 28.8122 22.0108C28.3394 22.8172 28.3353 23.657 28.4545 24.2805L29.0712 27.4767C28.4041 28.356 27.5287 29.0715 26.5168 29.5645C25.5049 30.0576 24.3853 30.314 23.2497 30.3129H18.1107V38.1804H13.9995ZM23.2497 26.3792C23.6546 26.3792 24.0556 26.3029 24.4297 26.1546C24.8038 26.0063 25.1437 25.789 25.43 25.5151C25.7163 25.2411 25.9434 24.9159 26.0984 24.5579C26.2533 24.2 26.3331 23.8163 26.3331 23.4289C26.3331 23.0414 26.2533 22.6578 26.0984 22.2999C25.9434 21.9419 25.7163 21.6167 25.43 21.3427C25.1437 21.0687 24.8038 20.8514 24.4297 20.7032C24.0556 20.5549 23.6546 20.4786 23.2497 20.4786H18.1107V26.3792H23.2497ZM30.4772 23.9245C30.4019 23.6027 30.447 23.2658 30.6046 22.9726C31.0918 22.1465 32.4547 20.4786 35.5833 20.4786C38.7099 20.4786 40.0748 22.1445 40.5599 22.9726C40.7189 23.2653 40.7655 23.6023 40.6915 23.9245L38.7057 34.2467H36.6111V38.1804H34.5555V34.2467H32.4608L30.4772 23.9245ZM38.1528 26.3792L38.6667 23.7338C38.3172 23.2499 37.4744 22.4455 35.5833 22.4455C33.6921 22.4455 32.8493 23.2519 32.4999 23.7338L33.0138 26.3792H38.1528Z" fill="#F8F8F8"/>
</svg>
