<svg width="52" height="52" viewBox="0 0 52 52" fill="none" xmlns="http://www.w3.org/2000/svg">
<path d="M26.319 0C12.2102 0 0.759399 11.4502 0.759399 25.5596C0.759399 39.6689 12.2102 51.1192 26.319 51.1192C40.4277 51.1192 51.8792 39.6689 51.8792 25.5596C51.8792 11.4502 40.4283 0 26.319 0Z" fill="#0F6AAB"/>
<path d="M20.0373 22.0058L21.1834 14.226H15.2225L12.7317 20.8944C12.655 21.1315 12.6144 21.3775 12.6144 21.6353C12.6144 23.2713 14.2807 24.5991 16.3396 24.5991C18.2377 24.5991 19.8069 23.4669 20.0373 22.0058ZM25.6549 24.5991C27.7124 24.5991 29.3801 23.2713 29.3801 21.6353C29.3801 21.5746 29.3757 21.5138 29.3728 21.456L28.6353 14.226H22.6744L21.9354 21.4501C21.932 21.5118 21.9301 21.5735 21.9296 21.6353C21.9296 23.2713 23.5974 24.5991 25.6549 24.5991ZM32.8996 26.1491V32.0084H18.4102V26.158C17.7755 26.3921 17.0771 26.5255 16.3396 26.5255C16.0571 26.5255 15.7832 26.4914 15.5123 26.4529V35.8613C15.5123 37.0024 16.4236 37.9359 17.5379 37.9359H33.7689C34.8846 37.9359 35.7975 37.0009 35.7975 35.8613V26.4544C35.5236 26.4974 35.2472 26.5216 34.9701 26.527C34.2636 26.5263 33.5627 26.3984 32.8996 26.1491ZM38.5794 20.8944L36.0858 14.226H30.1263L31.271 21.9939C31.4941 23.461 33.0633 24.5991 34.9701 24.5991C37.0276 24.5991 38.6953 23.2713 38.6953 21.6353C38.6953 21.3775 38.6548 21.1315 38.5794 20.8944Z" fill="#F8F8F8"/>
</svg>
