<svg width="55" height="55" viewBox="0 0 55 55" fill="none" xmlns="http://www.w3.org/2000/svg">
<path d="M27.4397 0C12.2931 0 0 12.2925 0 27.4397C0 42.5869 12.2931 54.8794 27.4397 54.8794C42.5862 54.8794 54.88 42.5869 54.88 27.4397C54.88 12.2925 42.5869 0 27.4397 0Z" fill="#0F6AAB"/>
<path d="M33.0903 13.9997C33.0903 16.8117 30.5238 19.0905 27.3593 19.0905C24.1983 19.0905 21.636 16.811 21.636 13.9997C21.636 11.1883 24.1983 8.90889 27.3593 8.90889C30.5238 8.90889 33.0903 11.1883 33.0903 13.9997Z" fill="#F8F8F8"/>
<path d="M20.431 28.4354H21.7815L19.8526 34.9503H34.924L33.0041 28.4354H34.3559L36.288 34.9503H40.7229L37.696 25.0796C37.223 23.4503 35.1497 20.5814 31.5718 20.4945L23.3461 20.4876C19.6871 20.5052 17.5703 23.4301 17.0916 25.079L14.0058 34.9497H18.5034L20.431 28.4354ZM7.63623 37.0275H47.09V40.7265H7.63623V37.0275Z" fill="#F8F8F8"/>
</svg>
